<svg xmlns="http://www.w3.org/2000/svg" viewBox="0 0 299.46 299.45"><g id="Layer_2" data-name="Layer 2"><g id="Layer_1-2" data-name="Layer 1"><path d="M299.46,150.16c.05,82.13-67.25,149.23-149.73,149.29C67.48,299.51,0,232.31,0,150.35,0,67.27,66.92,0,149.65,0S299.4,67.13,299.46,150.16ZM172.4,170.75l-1.86.6a203.42,203.42,0,0,0-59,32.51c-12.65,10-24,21.38-33.08,34.78-2.62,3.86-4.89,8-7.37,12,.77.61,1.24,1,1.73,1.37a126.25,126.25,0,0,0,61.5,24.83,127.58,127.58,0,0,0,63.61-8.42c1.37-.55,1.76-1.19,1.44-2.64-.86-4-1.51-8-2.35-11.95A548.26,548.26,0,0,0,175.49,179C174.51,176.28,173.48,173.61,172.4,170.75ZM54.48,235.24c26.7-41.22,62.17-70.71,109.22-86q-5.12-10.68-10.25-21.39c-43.08,12.56-86.87,18-131.59,18.3C21.38,180.19,32.25,209.72,54.48,235.24ZM142.7,108.05a815.9,815.9,0,0,0-47.42-74c-37.46,19-61.06,48.61-70.81,89.39C41.65,126.29,120.39,116,142.7,108.05Zm-23-82.59a692.77,692.77,0,0,1,47.84,75c26.05-10.14,49.26-24,67.17-46.25C200.94,26,162.91,16.41,119.69,25.46Zm129,43.8c-9.33,11.62-20.38,21.12-32.49,29.44a206.23,206.23,0,0,1-38.61,20.71,2.43,2.43,0,0,0,.06.61c3.49,7.81,7,15.61,10.45,23.45.43,1,1,1,1.9,1,4.48-.43,9-.93,13.45-1.17a303.79,303.79,0,0,1,68.13,4.33c1.93.34,3.87.64,5.8,1C279.81,127.06,264.77,85.54,248.67,69.26ZM221.22,255.81c.57-.36.95-.56,1.3-.81q42.91-30.57,53-82.28c.49-2.52.46-2.54-2.06-3.22C249.32,163,224.83,161,200,164.26c-1.14.15-2.27.37-3.55.59A573.62,573.62,0,0,1,221.22,255.81Z"/></g></g></svg>