<svg xmlns="http://www.w3.org/2000/svg" viewBox="0 0 205.63 397"><g id="Layer_2" data-name="Layer 2"><g id="Layer_1-2" data-name="Layer 1"><path d="M60.64,216H0V145.36H60.58V142.3c0-17.68-.15-35.35.12-53C61,72.17,64.25,55.7,72.92,40.68s21.36-26,37.33-32.93a96.78,96.78,0,0,1,41-7.73c15.88.33,31.74,1.21,47.6,1.91,2.22.1,4.42.56,6.76.87V65.88h-2.86c-13.1,0-26.2,0-39.3.18a53.83,53.83,0,0,0-9.42,1.26c-11.15,2.12-17.17,9.33-19.12,20.1a86.82,86.82,0,0,0-1.31,14.3c-.17,13.49-.06,27-.05,40.46v3.09h69.86c-.43,3.39-.79,6.43-1.19,9.46-2.59,19.66-5.22,39.31-7.72,59-.25,2-1,2.32-2.78,2.32q-27.44-.07-54.88,0h-3.21V397h-73Z"/></g></g></svg>