<svg xmlns="http://www.w3.org/2000/svg" viewBox="0 0 240 239.99"><g id="Layer_2" data-name="Layer 2"><g id="Layer_1-2" data-name="Layer 1"><path d="M0,113.81c.07-6.74.1-19.64.35-32.54A171.31,171.31,0,0,1,1.94,58c2.33-14.83,8-28,19-38.63,9.18-8.87,20.2-14,32.53-16.61a113.68,113.68,0,0,1,18-2.08c16-.82,32-.64,47.93-.65,13.54,0,27.09.06,40.63.35a197.81,197.81,0,0,1,20.65,1.41c13.48,1.72,25.81,6.38,36.19,15.52,10,8.81,16.31,19.81,19.56,32.65a102.27,102.27,0,0,1,2.84,20.89c1.15,26.91.65,53.83.54,80.75,0,7.92-.41,15.85-1,23.75-.88,11.88-3.84,23.22-10.24,33.43-8.74,14-21.25,22.84-37,27.24a97.92,97.92,0,0,1-22.25,3.24c-27.21,1.16-54.44.66-81.66.54-7.64,0-15.3-.42-22.93-1-11.39-.84-22.33-3.56-32.23-9.45A60.67,60.67,0,0,1,5,194.89,89.72,89.72,0,0,1,.93,172.58C-.17,155.06.12,137.52,0,113.81ZM120,218.12v.46c15.74-.3,31.48-.54,47.22-.9a75.11,75.11,0,0,0,18.85-2.61c11.3-3.19,20-9.74,25.53-20.17a52.8,52.8,0,0,0,5.69-21.63c.47-7.12.82-14.27.87-21.41.19-27.53.7-55.06-.65-82.57a66.75,66.75,0,0,0-3.23-18,39.1,39.1,0,0,0-19.5-23,52.56,52.56,0,0,0-21.46-5.57c-8-.49-16.09-.89-24.14-.93-25.53-.13-51.06-.55-76.58.51a76.44,76.44,0,0,0-21.27,3.41A39.55,39.55,0,0,0,30.9,40.8C26.22,47.44,24,55,23.13,63,22.44,69.66,22,76.4,21.92,83.13c-.36,28.1-.69,56.21.37,84.31a80.9,80.9,0,0,0,2.63,18.75,40.19,40.19,0,0,0,16.55,23.33A46.17,46.17,0,0,0,63,216.84c7.06.7,14.18,1.11,21.28,1.23C96.16,218.26,108.08,218.12,120,218.12Z"/><path d="M120,58.37a61.6,61.6,0,1,1-61.6,61.5A61.54,61.54,0,0,1,120,58.37ZM120,160a40,40,0,1,0-40-40A40.06,40.06,0,0,0,120,160Z"/><path d="M184.09,41.53a14.4,14.4,0,1,1-14.46,14.33A14.37,14.37,0,0,1,184.09,41.53Z"/></g></g></svg>