<svg xmlns="http://www.w3.org/2000/svg" viewBox="0 0 360.41 343.99"><g id="Layer_2" data-name="Layer 2"><g id="Layer_1-2" data-name="Layer 1"><path d="M360.39,344h-77v-2.44q0-60.45,0-120.9c0-8.83-.63-17.59-3.12-26.11-5.63-19.24-19.44-28.59-39.5-27.08-16.21,1.22-26.71,10.36-34.28,23.87-3.68,6.56-4.73,13.74-4.74,21.1q-.09,51.44,0,102.86c0,9.47,0,18.94,0,28.61H125V112.08H201.5v32.14l.56.26c.45-.58.92-1.15,1.34-1.76a84.91,84.91,0,0,1,25.83-25.12,77.21,77.21,0,0,1,36.55-11c15.44-.87,30.48,1.1,44.67,7.66,17.54,8.12,30.38,21,38.71,38.44,7,14.76,10.32,30.51,10.73,46.71.56,22.54.43,45.1.49,67.65.06,24.44,0,48.88,0,73.32Z"/><path d="M81.45,112.09V344H4.78V112.09Z"/><path d="M86.8,40.62C86.9,60.29,73.2,76,53,79.28c-10.22,1.66-20.31,1.28-29.86-3C7.13,69-1.63,53.26.25,35.73,2.31,16.58,16.72,2.63,36.59.44,45.16-.51,53.6,0,61.69,3,77.58,9.11,86.71,22.92,86.8,40.62Z"/></g></g></svg>