<?xml version="1.0" encoding="utf-8"?>
<!-- Generator: Adobe Illustrator 24.1.1, SVG Export Plug-In . SVG Version: 6.00 Build 0)  -->
<svg version="1.1" id="Layer_1" xmlns="http://www.w3.org/2000/svg" xmlns:xlink="http://www.w3.org/1999/xlink" x="0px" y="0px"
	 viewBox="0 0 179.3 212.6" style="enable-background:new 0 0 179.3 212.6;" xml:space="preserve">
<g id="Layer_2_1_">
	<g id="Layer_1-2">
		<path d="M0,212.6V137h18.7v56.5h132.8v-56.6h18.7v75.6H0z"/>
		<path d="M132.4,150.8l-92.8-19.4l3.9-18.7l92.8,19.4C135,138.4,133.7,144.4,132.4,150.8z"/>
		<path d="M51.9,87.2l7.9-17.4l85.9,40.3c-2.6,5.8-5.2,11.4-7.9,17.2L51.9,87.2z"/>
		<path d="M179.3,76.1l-15.2,11.3l-56.5-76.1L122.8,0L179.3,76.1z"/>
		<path d="M160.6,91.1l-12,14.5L75.7,44.9l12-14.5L160.6,91.1z"/>
		<path d="M37.7,174.4v-18.6h94.5v18.6H37.7z"/>
	</g>
</g>
</svg>
