<?xml version="1.0" encoding="utf-8"?>
<!-- Generator: Adobe Illustrator 24.1.1, SVG Export Plug-In . SVG Version: 6.00 Build 0)  -->
<svg version="1.1" id="Layer_1" xmlns="http://www.w3.org/2000/svg" xmlns:xlink="http://www.w3.org/1999/xlink" x="0px" y="0px"
	 viewBox="0 0 194.1 160.9" style="enable-background:new 0 0 194.1 160.9;" xml:space="preserve">
<g id="Layer_2_1_">
	<g id="Layer_1-2">
		<path d="M0,143.6c21.1,0.7,39.8-4.5,55.8-16.4c-7-3.2-14.6-5.9-21.4-9.9c-7.1-4.2-11.1-11.2-14.3-19.7h15.6
			C17.8,90.2,7.3,77.8,5.8,57.7l15.6,3.7l0.6-1.1C14.4,53.6,8.9,45.8,7,35.7C5.1,26.1,6.7,16,11.6,7.5c22,25.9,49.5,39.7,83.3,42.4
			c0-5.8-0.7-11.2,0.1-16.3c5.2-30.8,41.8-44.3,65.6-24.1c3.2,2.7,5.8,3.2,9.3,1.9c6.3-2.4,12.7-4.8,19.5-7.4
			c-2.5,8.2-7.6,14.2-14.9,20c7.1,0.9,12.6-2.4,18.5-3.6l1,1.4c-4.9,5-9.6,10.3-14.9,14.9c-2.8,2.4-3.9,4.7-3.9,8.4
			c0.1,51.2-32.6,96.2-81.3,110.7c-31.3,9.3-61.6,5.6-90.3-10C2.4,145.2,1.2,144.4,0,143.6z"/>
	</g>
</g>
</svg>
