<svg xmlns="http://www.w3.org/2000/svg" viewBox="0 0 224 225"><g id="Layer_2" data-name="Layer 2"><g id="Layer_1-2" data-name="Layer 1"><path d="M100,0h24a10.51,10.51,0,0,0,2.25.86,111.14,111.14,0,0,1,94.81,87.6c1.19,5.8,2,11.69,2.94,17.54v11q-.88,5.58-1.78,11.16c-11.13,69.11-79.54,111-145.58,89.18-13.76-8.76-27.8-6.46-42.21-1.59C23.79,219.34,12.82,222,2,225H0a42.06,42.06,0,0,1,.67-4.36c4.45-16.54,9-33,13.31-49.63a10.84,10.84,0,0,0-.74-6.89C3.8,144.73-.9,124.48.77,102.78c3.53-45.63,35.17-85.12,79-98C86.41,2.85,93.25,1.58,100,0ZM26.6,198.26c9.31-2.41,17.62-4.17,25.66-6.79,6.15-2,11.2-1.3,16.91,1.83,47.46,26,107.43,4,128.56-46.86,17.5-42.17.66-91.76-38.7-114.63-40.64-23.62-91.35-14-119.94,22.67-23.91,30.69-26.32,70-6.18,104.85a12.46,12.46,0,0,1,1.34,10.76C31.57,179.11,29.29,188.26,26.6,198.26Z"/><path d="M140.79,165.24c-13.69-1.16-26.16-6.28-37.58-13.48-18.67-11.79-33-27.92-43.33-47.37C52.09,89.74,54,75.48,64.29,64.17c3.54-3.88,11.36-6,16-3.85a8.06,8.06,0,0,1,3.49,4c3.11,7,6,14.06,8.93,21.11,1.9,4.53-.86,7.66-3.34,10.78-6.14,7.72-6.1,7.64-.47,15.72a75.32,75.32,0,0,0,33.46,26.73c3.18,1.34,5.31.83,7.32-1.85,2.29-3.07,4.93-5.87,7.15-9,1.84-2.59,3.87-3.42,6.8-2,7.36,3.49,14.83,6.77,22.06,10.5a6.26,6.26,0,0,1,2.72,4.68c.12,7.52-2.19,14-8.9,18.42C153.83,163.08,147.88,165.79,140.79,165.24Z"/></g></g></svg>