<?xml version="1.0" encoding="utf-8"?>
<!-- Generator: Adobe Illustrator 24.1.1, SVG Export Plug-In . SVG Version: 6.00 Build 0)  -->
<svg version="1.1" id="Layer_1" xmlns="http://www.w3.org/2000/svg" xmlns:xlink="http://www.w3.org/1999/xlink" x="0px" y="0px"
	 viewBox="0 0 192.5 135.6" style="enable-background:new 0 0 192.5 135.6;" xml:space="preserve">
<g id="Layer_2_1_">
	<g id="Layer_1-2">
		<path d="M94.3,0h5c0.2,0.1,0.3,0.1,0.5,0.1h7.5h4.2h0.3c9.1,0.2,18.2,0.5,27.3,0.8c3.2,0.1,6.5,0.3,9.7,0.5
			c4.7,0.3,9.4,0.7,14.1,1.2c2.9,0.3,5.8,0.7,8.7,1.3c8.8,1.9,15.8,8.6,18.1,17.3c1.4,5.7,2.3,11.5,2.7,17.3c0,0.2,0.1,0.5,0.1,0.7
			V96c-0.1,0.2-0.1,0.3-0.1,0.5c0,0.4,0,0.8-0.1,1.3c-0.2,2-0.5,4.1-0.7,6.1c-0.4,3.5-1,6.9-1.8,10.3c-2.2,8.7-9.1,15.5-17.8,17.6
			c-3.6,0.8-7.2,1.3-10.8,1.6c-3.9,0.4-7.8,0.7-11.7,0.9c-5.7,0.3-11.4,0.6-17.1,0.8c-5.2,0.2-10.3,0.3-15.5,0.4l-5.4,0.1h-9.6H95
			h-3.9h-8.5h-0.9c-3.4-0.1-6.8-0.1-10.2-0.2c-6.7-0.2-13.3-0.4-19.9-0.7c-3-0.1-6.1-0.3-9.1-0.5c-3.8-0.3-7.7-0.6-11.5-1
			c-3-0.2-6-0.7-9-1.4c-7.3-1.6-13.4-6.5-16.6-13.2c-1.2-2.8-2.1-5.8-2.5-8.8c-0.7-3.8-1.3-7.7-1.6-11.5c-0.3-4-0.6-7.9-0.9-11.9
			c-0.2-3.6-0.3-7.1-0.5-10.7v-0.3L0,72.8v-1.6c0-0.1,0-0.3,0.1-0.4v-7c0-0.2,0-0.3,0-0.5l0.2-7.5v-0.3c0-0.8,0.1-1.6,0.1-2.4
			C0.6,46.8,1,40.6,1.7,34.4c0.4-3.6,1-7.3,1.7-10.8c0.7-3.6,2.1-7.1,4.2-10.1c3.4-4.9,8.5-8.3,14.2-9.7c2.4-0.5,4.8-0.9,7.3-1.2
			c4.3-0.5,8.7-0.8,13-1.2c3.3-0.2,6.5-0.4,9.8-0.5C58.9,0.8,66,0.5,73,0.3c3-0.1,6-0.1,8.9-0.2h8c1.3,0,2.7,0,4,0
			C94,0.1,94.2,0.1,94.3,0z M77.6,38.8c0,0.3,0,0.5,0,0.7c0,19,0,38.1,0,57.2c0,0,0,0,0,0.1h0.1l50.2-28.9L77.6,38.8z"/>
	</g>
</g>
</svg>
